<?xml version="1.0" encoding="UTF-8" standalone="no"?>
<svg width="35px" height="90px" viewBox="0 0 35 90" version="1.1" xmlns="http://www.w3.org/2000/svg" xmlns:xlink="http://www.w3.org/1999/xlink" xmlns:sketch="http://www.bohemiancoding.com/sketch/ns">
    <title>Slice 1</title>
    <description>Created with Sketch (http://www.bohemiancoding.com/sketch)</description>
    <defs></defs>
    <g id="Page 1" stroke="none" stroke-width="1" fill="none" fill-rule="evenodd">
        <g id="Group">
            <path d="M0.249023438,1.72084569e-15 L0.249023438,45 L25.857,45 L34.364,22.491 L25.859,1.42108547e-14 L0.249023438,1.72084569e-15 Z M0.249023438,1.72084569e-15" id="Shape" fill="#C74327"></path>
            <path d="M10.562,4 L4.179,4 L11.115,22.342 L4,41.168 L10.383,41.168 L17.498,22.342 L10.562,4 L10.562,4 Z M10.562,4" id="Shape" fill="#222521"></path>
            <path d="M22.562,4 L16.179,4 L23.115,22.342 L16,41.168 L22.383,41.168 L29.498,22.342 L22.562,4 L22.562,4 Z M22.562,4" id="Shape" fill="#222521"></path>
        </g>
        <g id="Group" transform="translate(0.000000, 45.000000)">
            <path d="M0.249023438,1.72084569e-15 L0.249023438,45 L25.857,45 L34.364,22.491 L25.859,1.42108547e-14 L0.249023438,1.72084569e-15 Z M0.249023438,1.72084569e-15" id="Shape" fill="#AA3921"></path>
            <path d="M10.562,4 L4.179,4 L11.115,22.342 L4,41.168 L10.383,41.168 L17.498,22.342 L10.562,4 L10.562,4 Z M10.562,4" id="Shape" fill="#222521"></path>
            <path d="M22.562,4 L16.179,4 L23.115,22.342 L16,41.168 L22.383,41.168 L29.498,22.342 L22.562,4 L22.562,4 Z M22.562,4" id="Shape" fill="#222521"></path>
        </g>
    </g>
</svg>