<svg width="35" height="90" xmlns="http://www.w3.org/2000/svg"><title>Slice 1</title><g fill="none"><g id="Group"><path d="M.249 0v45h25.608l8.507-22.509-8.505-22.491h-25.61zm0 0" id="Shape" fill="#C74327"/><path d="M10.562 4h-6.383l6.936 18.342-7.115 18.826h6.383l7.115-18.826-6.936-18.342zm0 0" id="Shape" fill="#222521"/><path d="M22.562 4h-6.383l6.936 18.342-7.115 18.826h6.383l7.115-18.826-6.936-18.342zm0 0" id="Shape" fill="#222521"/></g><g><path d="M.249 45v45h25.608l8.507-22.509-8.505-22.491h-25.61zm0 0" id="Shape" fill="#AA3921"/><path d="M10.562 49h-6.383l6.936 18.342-7.115 18.826h6.383l7.115-18.826-6.936-18.342zm0 0" id="Shape" fill="#222521"/><path d="M22.562 49h-6.383l6.936 18.342-7.115 18.826h6.383l7.115-18.826-6.936-18.342zm0 0" fill="#222521"/></g></g></svg>