<?xml version="1.0" encoding="utf-8"?>
<!-- Generator: Adobe Illustrator 16.0.4, SVG Export Plug-In . SVG Version: 6.00 Build 0)  -->
<!DOCTYPE svg PUBLIC "-//W3C//DTD SVG 1.1//EN" "http://www.w3.org/Graphics/SVG/1.1/DTD/svg11.dtd">
<svg version="1.1" id="Layer_1" xmlns="http://www.w3.org/2000/svg" xmlns:xlink="http://www.w3.org/1999/xlink" x="0px" y="0px"
	 width="141.057px" height="171.309px" viewBox="0 0 141.057 171.309" enable-background="new 0 0 141.057 171.309"
	 xml:space="preserve">
<g>
	<polygon fill="#222521" points="141.057,26.497 70.521,0 0,26.497 0,144.811 70.54,171.309 141.057,144.811 	"/>
	<polygon fill="#E1D1A3" points="133.111,32.954 70.521,9.297 7.976,32.949 7.976,48.194 70.521,24.542 133.111,48.201 	"/>
	<polygon fill="#E1D1A3" points="7.976,137.227 70.563,160.887 133.111,137.235 133.111,121.985 70.563,145.637 7.976,121.977 	"/>
	<g>
		<path fill="#E1D1A3" d="M75.797,70.491c-0.13,7.125-0.648,13.214-4.988,19.302c-4.793,6.672-11.982,9.587-20.145,9.587
			c-15.351,0-26.038-10.429-26.038-25.78c0-15.87,10.752-26.298,26.492-26.298c10.04,0,17.812,4.534,22.022,13.667l-12.048,5.052
			c-1.749-4.664-5.44-7.772-10.558-7.772c-8.356,0-12.696,7.967-12.696,15.416c0,7.579,4.534,15.287,12.891,15.287
			c5.506,0,9.716-2.85,10.234-8.485H50.6v-9.975H75.797z"/>
	</g>
	<g>
		<path fill="#E1D1A3" d="M97.117,108.583h15.222v10.752H84.422V70.497h12.695V108.583z"/>
	</g>
	<polygon fill="#222521" points="115.278,44.681 28.39,101.841 31.567,118.125 118.456,60.965 	"/>
</g>
<g>
</g>
<g>
</g>
<g>
</g>
<g>
</g>
<g>
</g>
<g>
</g>
</svg>
