<svg xmlns="http://www.w3.org/2000/svg" width="141.057" height="171.309"><polygon fill="#222521" points="141.057,26.497 70.521,0 0,26.497 0,144.811 70.54,171.309 141.057,144.811"/><polygon fill="#E1D1A3" points="133.111,32.954 70.521,9.297 7.976,32.949 7.976,48.194 70.521,24.542 133.111,48.201"/><polygon fill="#E1D1A3" points="7.976,137.227 70.563,160.887 133.111,137.235 133.111,121.985 70.563,145.637 7.976,121.977"/><path fill="#E1D1A3" d="M75.797 70.491c-.13 7.125-.648 13.214-4.988 19.302-4.793 6.672-11.982 9.587-20.145 9.587-15.351 0-26.038-10.429-26.038-25.78 0-15.87 10.752-26.298 26.492-26.298 10.04 0 17.812 4.534 22.022 13.667l-12.048 5.052c-1.749-4.664-5.44-7.772-10.558-7.772-8.356 0-12.696 7.967-12.696 15.416 0 7.579 4.534 15.287 12.891 15.287 5.506 0 9.716-2.85 10.234-8.485h-10.363v-9.975h25.197z"/><path fill="#E1D1A3" d="M97.117 108.583h15.222v10.752h-27.917v-48.838h12.695v38.086z"/><polygon fill="#222521" points="115.278,44.681 28.39,101.841 31.567,118.125 118.456,60.965"/></svg>