<?xml version="1.0" encoding="utf-8"?>
<!-- Generator: Adobe Illustrator 16.0.4, SVG Export Plug-In . SVG Version: 6.00 Build 0)  -->
<!DOCTYPE svg PUBLIC "-//W3C//DTD SVG 1.1//EN" "http://www.w3.org/Graphics/SVG/1.1/DTD/svg11.dtd">
<svg version="1.1" id="Layer_1" xmlns="http://www.w3.org/2000/svg" xmlns:xlink="http://www.w3.org/1999/xlink" x="0px" y="0px"
	 width="102.586px" height="186.802px" viewBox="0 0 102.586 186.802" enable-background="new 0 0 102.586 186.802"
	 xml:space="preserve">
<g>
	<path fill="#222521" d="M101.003,128.498c0-9.664-3.214-18.637-8.699-26.045c0.28-2.118,0.43-4.287,0.43-6.49
		c0-7.979-1.909-15.473-5.257-21.969c-1.012-2.339-2.533-6.552-3.027-11.709c-0.766-7.968-2.633-23.12-2.633-23.12l-0.074,0.086
		C78.67,19.068,66.245,3.968,51.381,3.968c-14.868,0-27.294,15.106-30.363,35.294l-0.084-0.098c0,0-1.867,15.152-2.632,23.12
		c-0.507,5.272-2.086,9.562-3.096,11.865c-0.308,0.602-0.605,1.215-0.887,1.837l0,0l0,0c-2.744,6.02-4.29,12.8-4.29,19.975
		c0,2.203,0.149,4.372,0.43,6.49c-5.486,7.408-8.699,16.381-8.699,26.045c0,9.422,3.049,18.178,8.278,25.475
		c-0.004,0.18-0.01,0.359-0.01,0.539c0,16.564,41.353,29.992,41.353,29.992s41.353-13.428,41.353-29.992
		c0-0.18-0.007-0.359-0.01-0.539C97.953,146.675,101.003,137.919,101.003,128.498z"/>
	<g>
		<path fill="#E1D1A3" d="M85.611,148.97c-10.785,0-19.527-18.137-19.527-40.51c0-0.022,0-0.049,0-0.075l-0.213-0.181
			c5.774-0.988,10.169-6.016,10.169-12.072c0-6.766-5.485-12.253-12.253-12.253s-12.252,5.487-12.252,12.253
			c0-6.766-5.486-12.253-12.254-12.253c-6.767,0-12.251,5.487-12.251,12.253c0,6.057,4.395,11.084,10.168,12.072l-0.215,0.181
			c0,0.026,0.002,0.053,0.002,0.075c0,22.373-8.743,40.51-19.529,40.51c-0.075,0-0.152,0-0.228-0.006v0.006
			c0,0,0.918,17.461,34.307,17.461c33.387,0,34.307-17.461,34.307-17.461v-0.006C85.765,148.97,85.688,148.97,85.611,148.97z"/>
	</g>
	<path fill="#222521" d="M46.401,125.074h-0.036c-0.131,0.719-0.699,1.306-1.459,1.426c-0.946,0.146-1.83-0.488-2.001-1.426h-0.022
		l0.96,4.078l3.517,2.159L46.401,125.074z"/>
	<circle fill="#222521" cx="40.201" cy="98.277" r="4.288"/>
	<circle fill="#222521" cx="61.643" cy="98.277" r="4.288"/>
	<g>
		<path fill="#222521" d="M78.184,151.882c0-3.895-12-7.047-26.803-7.047c-14.802,0-26.802,3.152-26.802,7.047
			c0,0.363,0.11,0.725,0.315,1.078c1.001,2.051,3.718,1.535,3.718,1.535s-2.083-1.031-1.719-2.721
			c4.179-2.465,13.567-4.182,24.488-4.182c10.92,0,20.311,1.717,24.488,4.182c0.363,1.689-1.719,2.721-1.719,2.721
			s2.717,0.516,3.717-1.535C78.072,152.607,78.184,152.246,78.184,151.882z"/>
	</g>
	<path fill="#222521" d="M38.083,8.937c0,0,6.74-7.148,21.797-8.937c0,0-3.52,1.603-4.643,3.982c0,0,1.357-0.984,5.562-0.578
		c0,0-3.679,1.189-5.079,7.316L38.083,8.937z"/>
	<path fill="#222521" d="M2.45,125.157c0,0-0.408,7.53-2.45,11.411c0,0,2.042,0.406,3.879-3.474c0,0-0.988,5.224-2.655,6.942
		c0,0,2.655,0,3.473-1.836c0,0-0.04,2.859-2.145,4.492c3.371,0,4.187-1.227,5.003-2.656C7.556,140.037,9.189,130.441,2.45,125.157z"
		/>
	<path fill="#222521" d="M88.778,85.905c0,0-0.325-7.456,2.452-13.359c0,0-1.452,0.127-3.865,2.552c0,0,0-2.447,2.793-5
		c0,0-2.672-0.698-3.488,1.141c0,0-0.15-2.57,1.955-4.205c-3.367,0-4.134,2.561-4.951,3.99C83.674,71.024,82.04,80.62,88.778,85.905
		z"/>
	<path fill="#222521" d="M12.836,81.807c0,0,1.254-2.624-1.193-9.156c0,0,1.817-0.062,3.655,3.82c0,0-0.561-4.961-2.229-6.679
		c0,0,3.208-0.492,3.271,3.07c0,0,1.273-2.784-0.832-4.419c3.368,0,2.874,1.152,3.689,2.582
		C19.197,71.024,19.575,76.523,12.836,81.807z"/>
	<path fill="#222521" d="M100.137,125.157c0,0,0.408,6.763,2.449,10.644c0,0-2.041,1.174-3.88-2.706c0,0,1.425,4.202,3.091,5.923
		c0,0-2.258,0.76-3.076-1.078c0,0,0.175,2.508,2.282,4.141c-3.37,0-5.155-0.613-5.974-2.043
		C95.029,140.037,93.396,130.441,100.137,125.157z"/>
	<path fill="#222521" d="M47.195,136.72c-0.133,0-0.267-0.035-0.389-0.106l-6.228-3.675c-0.179-0.105-0.306-0.279-0.356-0.479
		l-2.757-11.179c-0.048-0.206-0.013-0.421,0.101-0.597c0.113-0.18,0.295-0.301,0.5-0.339l9.65-1.839
		c0.381-0.072,0.757,0.15,0.875,0.522l1.53,4.901c0.126,0.406-0.097,0.834-0.501,0.962c-0.405,0.124-2.595-5.06-2.595-5.06
		l-7.571,2.172l2.486,9.775c0,0,6.13,4.198,5.916,4.562C47.712,136.584,47.457,136.72,47.195,136.72z"/>
	<path fill="#222521" d="M56.898,125.074h0.035c0.129,0.719,0.699,1.306,1.46,1.426c0.944,0.146,1.831-0.488,2.001-1.426h0.02
		l-0.957,4.078l-3.518,2.159L56.898,125.074z"/>
	<path fill="#222521" d="M56.104,136.72c-0.262,0-0.518-0.136-0.66-0.378c-0.215-0.363-0.093-0.526,0.27-0.741l5.645-3.82
		l2.793-10.084l-7.57-1.252c0,0-2.496,4.572-2.901,4.448c-0.401-0.128-0.628-0.556-0.501-0.962l1.531-4.901
		c0.115-0.372,0.492-0.595,0.874-0.522l9.649,1.839c0.206,0.038,0.387,0.159,0.502,0.339c0.113,0.176,0.148,0.391,0.098,0.597
		l-2.756,11.179c-0.05,0.199-0.178,0.373-0.355,0.479l-6.229,3.675C56.371,136.685,56.235,136.72,56.104,136.72z"/>
	<path fill="#222521" d="M11.066,97.185c0,0-0.918,2.348-2.857,3.702c0,0,3.266,0.587,3.777-0.843c0,0-3.124,2.449-4.217,2.961
		c0,0,4.319,1.277,5.697-1.635c0.881-1.857-1.275-0.455-1.275-0.455S14.744,96.572,11.066,97.185z"/>
	<path fill="#222521" d="M8.111,149.943c0,0,0.537,2.463-0.329,4.666c0,0,3.044-1.324,2.678-2.797c0,0-1.245,3.773-1.871,4.803
		c0,0,4.304-1.328,3.838-4.514c-0.296-2.039-1.314,0.326-1.314,0.326S10.832,147.396,8.111,149.943z"/>
	<path fill="#222521" d="M94.911,149.943c0,0-0.535,2.463,0.329,4.666c0,0-3.043-1.324-2.678-2.797c0,0,1.244,3.773,1.871,4.803
		c0,0-4.304-1.328-3.838-4.514c0.297-2.039,1.314,0.326,1.314,0.326S92.191,147.396,94.911,149.943z"/>
	<path fill="#222521" d="M92.111,97.185c0,0,0.918,2.348,2.857,3.702c0,0-3.266,0.587-3.777-0.843c0,0,3.125,2.449,4.217,2.961
		c0,0-4.316,1.277-5.696-1.635c-0.882-1.857,1.274-0.455,1.274-0.455S88.434,96.572,92.111,97.185z"/>
	<path fill="#222521" d="M51.381,186.802c0,0,1.322-3.406,5.9-5.166c4.578-1.764,3.088-3.717,1.25-4.33
		c-1.838-0.615-17.534-3.482-17.38,2.492C41.151,179.798,48.078,182.49,51.381,186.802z"/>
	<path fill="#222521" d="M57.281,181.636c0,0-2.859,1.951-3.371,3.736c0,0-1.429-1.246-0.203-3.736
		C54.932,179.142,58.097,179.224,57.281,181.636z"/>
	<path fill="#222521" d="M44.54,181.136c0,0,3.471,1.998,2.96,4.705c0,0,2.145-2.523,1.226-4.705l-4.186,0.367"/>
	<path fill="#222521" d="M21.62,45.407c-0.154-2.127-0.143-3.309-0.426-5.233c-0.338-2.278-2.395-4.497-1.347-6.928
		c0,0,1.736,3.415,2.221,2.622c0,0-1.725-1.986-0.435-5.556c0,0,0.854,3.997,5.314,5.877c2.801,1.183-1.13,4.755-1.13,4.755
		L21.62,45.407z"/>
	<path fill="#222521" d="M65.66,14.56c1.955,0.85,2.994,1.409,4.832,2.052c2.172,0.758,5.092-0.03,6.76,2.028
		c0,0-3.828-0.052-3.352,0.747c0,0,2.559-0.604,5.121,2.195c0,0-3.936-1.096-7.675,1.978c-2.349,1.931-3.683-3.209-3.683-3.209
		L65.66,14.56z"/>
	<path fill="#222521" d="M22.156,41.815c0,0-0.714-3.88-3.675-4.39c0,0,2.502,3.826,1.837,9.597L22.156,41.815z"/>
	<path fill="#222521" d="M69.802,17.24c0,0,3.931,0.314,5.193-2.411c0,0-4.347,1.42-9.746-0.715L69.802,17.24z"/>
</g>
<g>
</g>
<g>
</g>
<g>
</g>
<g>
</g>
<g>
</g>
<g>
</g>
</svg>
