<svg xmlns="http://www.w3.org/2000/svg" width="102.586" height="186.802"><path fill="#222521" d="M101.003 128.498c0-9.664-3.214-18.637-8.699-26.045.28-2.118.43-4.287.43-6.49 0-7.979-1.909-15.473-5.257-21.969-1.012-2.339-2.533-6.552-3.027-11.709-.766-7.968-2.633-23.12-2.633-23.12l-.074.086c-3.073-20.183-15.498-35.283-30.362-35.283-14.868 0-27.294 15.106-30.363 35.294l-.084-.098s-1.867 15.152-2.632 23.12c-.507 5.272-2.086 9.562-3.096 11.865-.308.602-.605 1.215-.887 1.837-2.744 6.02-4.29 12.8-4.29 19.975 0 2.203.149 4.372.43 6.49-5.486 7.408-8.699 16.381-8.699 26.045 0 9.422 3.049 18.178 8.278 25.475l-.01.539c0 16.564 41.353 29.992 41.353 29.992s41.353-13.428 41.353-29.992l-.01-.539c5.229-7.296 8.279-16.052 8.279-25.473z"/><path fill="#E1D1A3" d="M85.611 148.97c-10.785 0-19.527-18.137-19.527-40.51v-.075l-.213-.181c5.774-.988 10.169-6.016 10.169-12.072 0-6.766-5.485-12.253-12.253-12.253s-12.252 5.487-12.252 12.253c0-6.766-5.486-12.253-12.254-12.253-6.767 0-12.251 5.487-12.251 12.253 0 6.057 4.395 11.084 10.168 12.072l-.215.181.002.075c0 22.373-8.743 40.51-19.529 40.51l-.228-.006v.006s.918 17.461 34.307 17.461c33.387 0 34.307-17.461 34.307-17.461v-.006l-.231.006z"/><path fill="#222521" d="M46.401 125.074h-.036c-.131.719-.699 1.306-1.459 1.426-.946.146-1.83-.488-2.001-1.426h-.022l.96 4.078 3.517 2.159-.959-6.237z"/><circle fill="#222521" cx="40.201" cy="98.277" r="4.288"/><circle fill="#222521" cx="61.643" cy="98.277" r="4.288"/><path fill="#222521" d="M78.184 151.882c0-3.895-12-7.047-26.803-7.047-14.802 0-26.802 3.152-26.802 7.047 0 .363.11.725.315 1.078 1.001 2.051 3.718 1.535 3.718 1.535s-2.083-1.031-1.719-2.721c4.179-2.465 13.567-4.182 24.488-4.182 10.92 0 20.311 1.717 24.488 4.182.363 1.689-1.719 2.721-1.719 2.721s2.717.516 3.717-1.535c.205-.353.317-.714.317-1.078z"/><path fill="#222521" d="M38.083 8.937s6.74-7.148 21.797-8.937c0 0-3.52 1.603-4.643 3.982 0 0 1.357-.984 5.562-.578 0 0-3.679 1.189-5.079 7.316l-17.637-1.783z"/><path fill="#222521" d="M2.45 125.157s-.408 7.53-2.45 11.411c0 0 2.042.406 3.879-3.474 0 0-.988 5.224-2.655 6.942 0 0 2.655 0 3.473-1.836 0 0-.04 2.859-2.145 4.492 3.371 0 4.187-1.227 5.003-2.656.001.001 1.634-9.595-5.105-14.879z"/><path fill="#222521" d="M88.778 85.905s-.325-7.456 2.452-13.359c0 0-1.452.127-3.865 2.552 0 0 0-2.447 2.793-5 0 0-2.672-.698-3.488 1.141 0 0-.15-2.57 1.955-4.205-3.367 0-4.134 2.561-4.951 3.99 0 0-1.634 9.596 5.104 14.881z"/><path fill="#222521" d="M12.836 81.807s1.254-2.624-1.193-9.156c0 0 1.817-.062 3.655 3.82 0 0-.561-4.961-2.229-6.679 0 0 3.208-.492 3.271 3.07 0 0 1.273-2.784-.832-4.419 3.368 0 2.874 1.152 3.689 2.582 0-.001.378 5.498-6.361 10.782z"/><path fill="#222521" d="M100.137 125.157s.408 6.763 2.449 10.644c0 0-2.041 1.174-3.88-2.706 0 0 1.425 4.202 3.091 5.923 0 0-2.258.76-3.076-1.078 0 0 .175 2.508 2.282 4.141-3.37 0-5.155-.613-5.974-2.043 0-.001-1.633-9.597 5.108-14.881z"/><path fill="#222521" d="M47.195 136.72c-.133 0-.267-.035-.389-.106l-6.228-3.675c-.179-.105-.306-.279-.356-.479l-2.757-11.179c-.048-.206-.013-.421.101-.597.113-.18.295-.301.5-.339l9.65-1.839c.381-.072.757.15.875.522l1.53 4.901c.126.406-.097.834-.501.962-.405.124-2.595-5.06-2.595-5.06l-7.571 2.172 2.486 9.775s6.13 4.198 5.916 4.562c-.144.244-.399.38-.661.38z"/><path fill="#222521" d="M56.898 125.074h.035c.129.719.699 1.306 1.46 1.426.944.146 1.831-.488 2.001-1.426h.02l-.957 4.078-3.518 2.159.959-6.237z"/><path fill="#222521" d="M56.104 136.72c-.262 0-.518-.136-.66-.378-.215-.363-.093-.526.27-.741l5.645-3.82 2.793-10.084-7.57-1.252s-2.496 4.572-2.901 4.448c-.401-.128-.628-.556-.501-.962l1.531-4.901c.115-.372.492-.595.874-.522l9.649 1.839c.206.038.387.159.502.339.113.176.148.391.098.597l-2.756 11.179c-.05.199-.178.373-.355.479l-6.229 3.675c-.123.069-.259.104-.39.104z"/><path fill="#222521" d="M11.066 97.185s-.918 2.348-2.857 3.702c0 0 3.266.587 3.777-.843 0 0-3.124 2.449-4.217 2.961 0 0 4.319 1.277 5.697-1.635.881-1.857-1.275-.455-1.275-.455s2.553-4.343-1.125-3.73z"/><path fill="#222521" d="M8.111 149.943s.537 2.463-.329 4.666c0 0 3.044-1.324 2.678-2.797 0 0-1.245 3.773-1.871 4.803 0 0 4.304-1.328 3.838-4.514-.296-2.039-1.314.326-1.314.326s-.281-5.031-3.002-2.484z"/><path fill="#222521" d="M94.911 149.943s-.535 2.463.329 4.666c0 0-3.043-1.324-2.678-2.797 0 0 1.244 3.773 1.871 4.803 0 0-4.304-1.328-3.838-4.514.297-2.039 1.314.326 1.314.326s.282-5.031 3.002-2.484z"/><path fill="#222521" d="M92.111 97.185s.918 2.348 2.857 3.702c0 0-3.266.587-3.777-.843 0 0 3.125 2.449 4.217 2.961 0 0-4.316 1.277-5.696-1.635-.882-1.857 1.274-.455 1.274-.455s-2.552-4.343 1.125-3.73z"/><path fill="#222521" d="M51.381 186.802s1.322-3.406 5.9-5.166c4.578-1.764 3.088-3.717 1.25-4.33-1.838-.615-17.534-3.482-17.38 2.492 0 0 6.927 2.692 10.23 7.004z"/><path fill="#222521" d="M57.281 181.636s-2.859 1.951-3.371 3.736c0 0-1.429-1.246-.203-3.736 1.225-2.494 4.39-2.412 3.574 0z"/><path fill="#222521" d="M44.54 181.136s3.471 1.998 2.96 4.705c0 0 2.145-2.523 1.226-4.705l-4.186.367"/><path fill="#222521" d="M21.62 45.407c-.154-2.127-.143-3.309-.426-5.233-.338-2.278-2.395-4.497-1.347-6.928 0 0 1.736 3.415 2.221 2.622 0 0-1.725-1.986-.435-5.556 0 0 .854 3.997 5.314 5.877 2.801 1.183-1.13 4.755-1.13 4.755l-4.197 4.463z"/><path fill="#222521" d="M65.66 14.56c1.955.85 2.994 1.409 4.832 2.052 2.172.758 5.092-.03 6.76 2.028 0 0-3.828-.052-3.352.747 0 0 2.559-.604 5.121 2.195 0 0-3.936-1.096-7.675 1.978-2.349 1.931-3.683-3.209-3.683-3.209l-2.003-5.791z"/><path fill="#222521" d="M22.156 41.815s-.714-3.88-3.675-4.39c0 0 2.502 3.826 1.837 9.597l1.838-5.207z"/><path fill="#222521" d="M69.802 17.24s3.931.314 5.193-2.411c0 0-4.347 1.42-9.746-.715l4.553 3.126z"/></svg>