<?xml version="1.0" encoding="utf-8"?>
<!-- Generator: Adobe Illustrator 16.0.4, SVG Export Plug-In . SVG Version: 6.00 Build 0)  -->
<!DOCTYPE svg PUBLIC "-//W3C//DTD SVG 1.1//EN" "http://www.w3.org/Graphics/SVG/1.1/DTD/svg11.dtd">
<svg version="1.1" id="Layer_1" xmlns="http://www.w3.org/2000/svg" xmlns:xlink="http://www.w3.org/1999/xlink" x="0px" y="0px"
	 width="63.047px" height="77.982px" viewBox="0 0 63.047 77.982" enable-background="new 0 0 63.047 77.982" xml:space="preserve">
<g>
	<polygon fill="#222521" stroke="#222521" stroke-width="2.07" stroke-linejoin="round" stroke-miterlimit="10" points="
		62.104,13.292 31.539,1.811 0.98,13.292 0.98,64.561 31.546,76.043 62.104,64.561 	"/>
	<g>
		<path fill="none" stroke="#E1D1A3" stroke-width="2.07" stroke-miterlimit="10" d="M28.353,39.612
			c0-2.234-1.811-4.045-4.047-4.045c-2.232,0-4.045,1.811-4.045,4.045c0,2.238,1.812,4.049,4.045,4.049
			C26.542,43.661,28.353,41.85,28.353,39.612z"/>
		<path fill="none" stroke="#E1D1A3" stroke-width="2.07" stroke-miterlimit="10" d="M42.974,39.612
			c0-2.234-1.812-4.045-4.046-4.045c-2.236,0-4.047,1.811-4.047,4.045c0,2.238,1.811,4.049,4.047,4.049
			C41.162,43.661,42.974,41.85,42.974,39.612z"/>
		<circle fill="none" stroke="#E1D1A3" stroke-width="2.07" stroke-miterlimit="10" cx="38.927" cy="54.233" r="4.046"/>
		<circle fill="none" stroke="#E1D1A3" stroke-width="2.07" stroke-miterlimit="10" cx="24.307" cy="54.233" r="4.046"/>
	</g>
	<polygon fill="#E1D1A3" points="58.659,16.09 31.539,5.839 4.436,16.088 4.436,22.694 31.539,12.446 58.659,22.697 	"/>
	<polygon fill="#E1D1A3" points="58.659,26.581 31.539,16.329 4.436,26.578 4.436,33.186 31.539,22.937 58.659,33.189 	"/>
</g>
</svg>
