<svg xmlns="http://www.w3.org/2000/svg" width="63.047" height="77.982"><polygon fill="#222521" stroke="#222521" stroke-width="2.07" stroke-linejoin="round" stroke-miterlimit="10" points="62.104,13.292 31.539,1.811 0.98,13.292 0.98,64.561 31.546,76.043 62.104,64.561"/><g stroke="#E1D1A3" stroke-width="2.07" stroke-miterlimit="10" fill="none"><path d="M28.353 39.612c0-2.234-1.811-4.045-4.047-4.045-2.232 0-4.045 1.811-4.045 4.045 0 2.238 1.812 4.049 4.045 4.049 2.236 0 4.047-1.811 4.047-4.049zM42.974 39.612c0-2.234-1.812-4.045-4.046-4.045-2.236 0-4.047 1.811-4.047 4.045 0 2.238 1.811 4.049 4.047 4.049 2.234 0 4.046-1.811 4.046-4.049z"/><circle cx="38.927" cy="54.233" r="4.046"/><circle cx="24.307" cy="54.233" r="4.046"/></g><polygon fill="#E1D1A3" points="58.659,16.09 31.539,5.839 4.436,16.088 4.436,22.694 31.539,12.446 58.659,22.697"/><polygon fill="#E1D1A3" points="58.659,26.581 31.539,16.329 4.436,26.578 4.436,33.186 31.539,22.937 58.659,33.189"/></svg>