<svg xmlns="http://www.w3.org/2000/svg" width="412" height="79.734"><g fill="#E1D1A3"><path d="M309.009 50.846h10.887v8.096h-19.967v-36.772h9.08v28.676zM332.679 52.553l-2.409 6.389h-9.636l13.435-36.771h9.914l13.156 36.771h-9.682l-2.271-6.389h-12.507zm6.346-19.02h-.093l-3.752 11.704h7.551l-3.706-11.704zM358.108 58.941v-36.771h12.971c6.208 0 10.377 2.536 10.377 9.559 0 3.316-1.019 5.998-3.845 7.51v.097c5.003.683 7.135 4.243 7.135 9.363 0 7.706-6.255 10.242-12.647 10.242h-13.991zm9.08-22.336h1.019c2.409 0 4.911-.439 4.911-3.56 0-3.365-2.826-3.56-5.281-3.56h-.648v7.12zm0 15.021h1.158c2.687 0 7.227.146 7.227-3.901 0-4.438-4.494-3.999-7.459-3.999h-.926v7.9zM405.867 31.631c-1.668-1.463-3.799-2.438-6.022-2.438-1.668 0-3.891 1.024-3.891 3.072 0 2.146 2.455 2.975 4.03 3.511l2.315.731c4.864 1.512 8.617 4.097 8.617 10.047 0 3.656-.834 7.412-3.613 9.898-2.733 2.439-6.394 3.463-9.914 3.463-4.4 0-8.709-1.561-12.276-4.193l3.892-7.705c2.27 2.097 4.957 3.803 8.061 3.803 2.131 0 4.401-1.121 4.401-3.705 0-2.683-3.567-3.609-5.513-4.194-5.698-1.707-9.451-3.268-9.451-10.388 0-7.461 5.05-12.338 12.045-12.338 3.521 0 7.829 1.17 10.933 3.023l-3.614 7.413z"/></g><g fill="#E1D1A3"><path d="M37.802 38.41c-.093 5.364-.463 9.948-3.567 14.532-3.428 5.023-8.57 7.218-14.408 7.218-10.979 0-18.623-7.852-18.623-19.409 0-11.948 7.69-19.8 18.947-19.8 7.18 0 12.739 3.414 15.75 10.29l-8.617 3.804c-1.25-3.511-3.891-5.852-7.551-5.852-5.976 0-9.08 5.999-9.08 11.607 0 5.706 3.243 11.509 9.219 11.509 3.938 0 6.949-2.146 7.32-6.389h-7.412v-7.51h18.022zM71.338 22.17v20.677c0 4.73-.185 9.412-3.66 12.973-2.918 3.023-7.505 4.096-11.582 4.096s-8.663-1.072-11.581-4.096c-3.475-3.561-3.66-8.242-3.66-12.973v-20.677h9.08v19.361c0 4.779.324 9.997 6.161 9.997s6.162-5.218 6.162-9.997v-19.361h9.08zM85.233 30.266v6.145h10.238v8.095h-10.238v6.34h10.794v8.096h-19.873v-36.772h19.874v8.095h-10.795zM128.824 58.941h-11.304l-8.57-14.143h-.092v14.143h-9.08v-36.771h13.573c6.903 0 12.138 3.462 12.138 11.314 0 5.072-2.687 9.461-7.644 10.388l10.979 15.069zm-19.967-20.287h.88c2.965 0 6.3-.585 6.3-4.584 0-3.999-3.335-4.584-6.3-4.584h-.88v9.168zM138.503 58.941h-9.08v-36.771h9.08v36.771zM151.658 50.846h10.886v8.096h-19.966v-36.772h9.08v28.676zM174.587 50.846h10.887v8.096h-19.966v-36.772h9.08v28.676zM198.258 52.553l-2.409 6.389h-9.636l13.435-36.771h9.914l13.156 36.771h-9.683l-2.27-6.389h-12.507zm6.346-19.02h-.093l-3.752 11.704h7.551l-3.706-11.704z"/></g></svg>