<?xml version="1.0" encoding="utf-8"?>
<!-- Generator: Adobe Illustrator 16.0.4, SVG Export Plug-In . SVG Version: 6.00 Build 0)  -->
<!DOCTYPE svg PUBLIC "-//W3C//DTD SVG 1.1//EN" "http://www.w3.org/Graphics/SVG/1.1/DTD/svg11.dtd">
<svg version="1.1" id="Layer_1" xmlns="http://www.w3.org/2000/svg" xmlns:xlink="http://www.w3.org/1999/xlink" x="0px" y="0px"
	 width="407.333px" height="75px" viewBox="0 0 407.333 75" enable-background="new 0 0 407.333 75" xml:space="preserve">
<g>
	<polygon fill="#222521" points="284.618,12.728 255.085,1.634 225.56,12.728 225.56,62.263 255.092,73.356 284.618,62.263 	"/>
	<g>
		<path fill="none" stroke="#E1D1A3" stroke-width="2" stroke-miterlimit="10" d="M252.007,38.157c0-2.159-1.751-3.908-3.911-3.908
			c-2.156,0-3.908,1.749-3.908,3.908c0,2.162,1.752,3.912,3.908,3.912C250.256,42.069,252.007,40.319,252.007,38.157z"/>
		<path fill="none" stroke="#E1D1A3" stroke-width="2" stroke-miterlimit="10" d="M266.133,38.157c0-2.159-1.75-3.908-3.909-3.908
			c-2.161,0-3.909,1.749-3.909,3.908c0,2.162,1.748,3.912,3.909,3.912C264.383,42.069,266.133,40.319,266.133,38.157z"/>
		<circle fill="none" stroke="#E1D1A3" stroke-width="2" stroke-miterlimit="10" cx="262.224" cy="52.284" r="3.909"/>
		<path fill="none" stroke="#E1D1A3" stroke-width="2" stroke-miterlimit="10" d="M252.007,52.284c0-2.16-1.751-3.91-3.911-3.91
			c-2.156,0-3.908,1.75-3.908,3.91s1.752,3.91,3.908,3.91C250.256,56.194,252.007,54.444,252.007,52.284z"/>
	</g>
	<polygon fill="#E1D1A3" points="281.29,15.431 255.085,5.527 228.899,15.429 228.899,21.812 255.085,11.91 281.29,21.815 	"/>
	<polygon fill="#E1D1A3" points="281.29,25.567 255.085,15.662 228.899,25.564 228.899,31.949 255.085,22.046 281.29,31.952 	"/>
</g>
<g>
	<path fill="#222521" d="M305.493,44.548h10.518v7.822h-19.289V16.842h8.771V44.548z"/>
	<path fill="#222521" d="M329.258,46.197l-2.327,6.173h-9.31l12.979-35.528h9.577l12.711,35.528h-9.354l-2.192-6.173H329.258z
		 M335.389,27.821H335.3l-3.626,11.309h7.295L335.389,27.821z"/>
	<path fill="#222521" d="M355.62,52.37V16.842h12.531c5.997,0,10.025,2.45,10.025,9.235c0,3.204-0.985,5.795-3.715,7.256v0.094
		c4.833,0.66,6.892,4.099,6.892,9.047c0,7.444-6.042,9.895-12.218,9.895H355.62z M364.391,30.79h0.984
		c2.328,0,4.744-0.424,4.744-3.44c0-3.251-2.729-3.439-5.102-3.439h-0.627V30.79z M364.391,45.302h1.119
		c2.596,0,6.981,0.142,6.981-3.77c0-4.287-4.341-3.863-7.205-3.863h-0.896V45.302z"/>
	<path fill="#222521" d="M401.762,25.983c-1.611-1.414-3.67-2.356-5.818-2.356c-1.611,0-3.76,0.99-3.76,2.968
		c0,2.073,2.372,2.875,3.894,3.393l2.237,0.707c4.699,1.461,8.324,3.958,8.324,9.706c0,3.534-0.805,7.162-3.49,9.565
		c-2.641,2.356-6.176,3.346-9.577,3.346c-4.252,0-8.414-1.508-11.86-4.052l3.76-7.445c2.193,2.026,4.789,3.676,7.787,3.676
		c2.059,0,4.252-1.084,4.252-3.582c0-2.591-3.446-3.486-5.326-4.052c-5.504-1.649-9.13-3.157-9.13-10.036
		c0-7.209,4.878-11.921,11.636-11.921c3.402,0,7.564,1.131,10.562,2.921L401.762,25.983z"/>
</g>
<g>
	<path fill="#222521" d="M36.519,32.533c-0.089,5.183-0.447,9.612-3.446,14.041c-3.312,4.854-8.279,6.974-13.918,6.974
		c-10.607,0-17.991-7.586-17.991-18.753c0-11.544,7.429-19.131,18.304-19.131c6.937,0,12.308,3.299,15.217,9.942l-8.324,3.675
		c-1.208-3.393-3.76-5.654-7.295-5.654c-5.773,0-8.772,5.795-8.772,11.214c0,5.513,3.133,11.12,8.906,11.12
		c3.804,0,6.713-2.073,7.071-6.173H19.11v-7.256H36.519z"/>
	<path fill="#222521" d="M68.027,16.842v19.979c0,4.571-0.179,9.094-3.536,12.534c-2.819,2.922-7.25,3.958-11.188,3.958
		c-3.938,0-8.369-1.036-11.188-3.958c-3.356-3.439-3.536-7.963-3.536-12.534V16.842h8.772v18.707c0,4.617,0.313,9.659,5.952,9.659
		c5.639,0,5.953-5.042,5.953-9.659V16.842H68.027z"/>
	<path fill="#222521" d="M80.561,24.664v5.937h9.891v7.822h-9.891v6.125h10.428v7.822h-19.2V16.842h19.2v7.822H80.561z"/>
	<path fill="#222521" d="M122.674,52.37h-10.92l-8.279-13.664h-0.089V52.37h-8.772V16.842h13.113
		c6.668,0,11.726,3.345,11.726,10.932c0,4.9-2.596,9.141-7.384,10.037L122.674,52.37z M103.386,32.769h0.85
		c2.864,0,6.086-0.565,6.086-4.429s-3.222-4.429-6.086-4.429h-0.85V32.769z"/>
	<path fill="#222521" d="M133.819,52.37h-8.772V16.842h8.772V52.37z"/>
	<path fill="#222521" d="M146.53,44.548h10.517v7.822h-19.289V16.842h8.772V44.548z"/>
	<path fill="#222521" d="M168.684,44.548h10.517v7.822h-19.289V16.842h8.772V44.548z"/>
	<path fill="#222521" d="M192.449,46.197l-2.327,6.173h-9.309l12.979-35.528h9.577l12.71,35.528h-9.354l-2.193-6.173H192.449z
		 M198.58,27.821h-0.089l-3.625,11.309h7.295L198.58,27.821z"/>
</g>
</svg>
